# xmcd
# 
# Track frame offsets:
#     150
#     14842
#     35921
#     54428
#     70419
#     91646
#     115331
#     130545
#     143620
#     160894
#     181826
#     196732
#     211894
#     242006
# 
# Disc length: 3344
# 
# Revision: 5
# Processed by: cddbd v1.5.2PL0 Copyright (c) Steve Scherf et al.
# Submitted via: fre:ac v1.0.17
# 
DISCID=bc0d0e0e
DTITLE=Grace Potter And The Nocturnals - Grace Potter And The Nocturnals
DYEAR=2010
DGENRE=Rock
TTITLE0=Paris (Ooh La La)
TTITLE1=Oasis
TTITLE2=Medicine
TTITLE3=Goodbye Kiss
TTITLE4=Tiny Light
TTITLE5=Colors
TTITLE6=Only Love
TTITLE7=Money
TTITLE8=One Short Night
TTITLE9=Low Road
TTITLE10=That Phone
TTITLE11=Hot Summer Night
TTITLE12=Things I Never Needed
TTITLE13=Data Track
EXTD=
EXTT0=
EXTT1=
EXTT2=
EXTT3=
EXTT4=
EXTT5=
EXTT6=
EXTT7=
EXTT8=
EXTT9=
EXTT10=
EXTT11=
EXTT12=
EXTT13=
PLAYORDER=
